# xmcd
#
# Track frame offsets:
#  150
#  16339
#  30967
#  41972
#  57276
#  71931
#  83616
#  103637
#  114315
#  124072
#  138026
#  152417
#  168837
#  181633
#  196286
#
# Disc length: 2800 seconds
#
# Revision: 0
# Processed by: cddbd v1.5.2PL0 Copyright (c) Steve Scherf et al.
# Submitted via: AltoMP3_Maker 3.0
#
DISCID=b40aee0f
DTITLE=Superstars of Country - Good Ol' Songs - Disc 1
DYEAR=1900
DGENRE=
TTITLE0=Alabama - The Closer You Get
TTITLE1=Ronnie Milsap - There's No Gettin' Over Me
TTITLE2=Charley Pride - Is Anybody Goin' To San Antone
TTITLE3=Waylon Jennings and Willie Nelson - Good Hearted Woman
TTITLE4=Bellamy Brothers - Let Your Love Flow
TTITLE5=Crystal Gayle - Don't It Make My Brown Eyes Blue
TTITLE6=Elvis Presley - Suspicious Minds
TTITLE7=Jerry Reed - Amos Moses
TTITLE8=Waylon Jennings - Theme From Dukes Of Hazzard [Good Ol' Boys]
TTITLE9=Dolly Parton - Coat Of Many Colors
TTITLE10=Earl Thomas Conley - Holding Her And Loving You
TTITLE11=George Jones - A Good Year For The Roses
TTITLE12=Porter Wagoner - The Carroll County Accident
TTITLE13=Dave and Sugar - Golden Tears
TTITLE14=Dolly Parton - I Will Always Love You
EXTD=
EXTT0=
EXTT1=
EXTT2=
EXTT3=
EXTT4=
EXTT5=
EXTT6=
EXTT7=
EXTT8=
EXTT9=
EXTT10=
EXTT11=
EXTT12=
EXTT13=
EXTT14=
PLAYORDER=
